# xmcd
#
# Track frame offsets:
#	150
#	15780
#	30240
#	45276
#	59455
#	74555
#	89628
#	103787
#	118077
#	132307
#	147290
#	161476
#	176907
#	192739
#	207473
#	222264
#	236305
#	250522
#	263592
#	277295
#
# Disc length: 3879 seconds
#
# Revision: 1
# Processed by: cddbd v1.5.2PL0 Copyright (c) Steve Scherf et al.
# Submitted via: EZCDAudioConverter 6.0.5.1
#
DISCID=280f2514
DTITLE=Doris Day - It's Magic 
DYEAR=1999
DGENRE=Oldies
TTITLE0=It's Magic
TTITLE1=Sentimental Journey
TTITLE2=My Dreams Are Getting Better All The Time
TTITLE3=Aren't You Glad You're You
TTITLE4=We'll Be Together Again
TTITLE5=Tain't Me
TTITLE6=Come To Baby, Do!
TTITLE7=I'll Always Be With You
TTITLE8=While The Music Plays On
TTITLE9=(I Ain't Hep To That Step But I'll)Dig It!
TTITLE10=Between Friends
TTITLE11=Beau Night In Hotchkiss Corner
TTITLE12=The Last Time I Saw You
TTITLE13=Easy As Pie
TTITLE14=Sooner Or Later
TTITLE15=Let's Be Buddies
TTITLE16=There's Good Blues Tonight
TTITLE17=Barbara Allen
TTITLE18=Celery Stalks At Midnight
TTITLE19=Love Somebody
EXTD=
EXTT0=
EXTT1=
EXTT2=
EXTT3=
EXTT4=
EXTT5=
EXTT6=
EXTT7=
EXTT8=
EXTT9=
EXTT10=
EXTT11=
EXTT12=
EXTT13=
EXTT14=
EXTT15=
EXTT16=
EXTT17=
EXTT18=
EXTT19=
PLAYORDER=
